<?xml version="1.0" encoding="UTF-8"?>
<svg version="1.1" xmlns="http://www.w3.org/2000/svg" width="1080" height="1080">
<path d="M0 0 C1.12319163 -0.00905664 2.24638326 -0.01811328 3.403611 -0.02744436 C4.63258424 -0.02211644 5.86155748 -0.01678851 7.12777233 -0.01129913 C8.43722024 -0.01739024 9.74666814 -0.02348134 11.09579629 -0.02975702 C14.72902402 -0.04617106 18.36203496 -0.04383569 21.99528682 -0.03838205 C25.91429779 -0.03571361 29.83325073 -0.05024023 33.75223827 -0.06247711 C41.42983202 -0.08354188 49.10735026 -0.08807134 56.78496949 -0.08628923 C63.02573353 -0.08498201 69.26647401 -0.08878366 75.50723362 -0.09621429 C77.30435234 -0.09831348 79.10147106 -0.10041108 80.89858979 -0.10250711 C81.79305202 -0.10355064 82.68751426 -0.10459417 83.60908141 -0.10566932 C100.52999897 -0.12457624 117.45087318 -0.12352024 134.37179693 -0.11669999 C149.85024021 -0.11112539 165.32851794 -0.13194562 180.80692253 -0.16506046 C196.69962813 -0.19879775 212.59225442 -0.21396567 228.4849965 -0.20934343 C237.40773419 -0.20709863 246.3303189 -0.21234339 255.25302601 -0.23723602 C262.85008949 -0.25824977 270.44691613 -0.26184058 278.04398934 -0.24293643 C281.91950876 -0.23377856 285.79458659 -0.23263653 289.6700716 -0.25329208 C293.87343829 -0.27544717 298.07576436 -0.25878523 302.27913952 -0.23834991 C303.50142059 -0.25086776 304.72370166 -0.26338561 305.98302156 -0.27628279 C312.10015523 -0.2124332 316.61134849 0.29867758 321.81202954 3.6276145 C326.47256466 8.79958434 326.83113022 14.51616499 326.77869225 21.131217 C326.78384215 21.99192262 326.78899206 22.85262824 326.79429802 23.73941585 C326.80792055 26.62530483 326.80023072 29.51073914 326.79265881 32.39664459 C326.79809775 34.48571387 326.80484909 36.57478008 326.81280071 38.66384131 C326.83085376 44.40585642 326.83026553 50.14774239 326.82667124 55.88977921 C326.82604825 62.08128274 326.84265946 68.27274261 326.85718822 74.46422577 C326.87999765 85.19187947 326.89196758 95.91948785 326.89631748 106.64716148 C326.90092488 117.89784527 326.91171168 129.1484952 326.93074512 140.3991642 C326.93192525 141.09878815 326.93310538 141.79841209 326.93432127 142.51923676 C326.94034672 146.07229689 326.94648251 149.62535681 326.95266078 153.17841668 C326.99621896 178.34242336 327.02593163 203.50642923 327.04749584 228.67046356 C327.06847641 253.11643947 327.09573224 277.56239522 327.13148022 302.00835419 C327.13312943 303.13872052 327.13312943 303.13872052 327.13481197 304.29192253 C327.14586033 311.85968232 327.15703624 319.42744193 327.16830559 326.9952014 C327.19125949 342.41149562 327.21336216 357.82779102 327.23495007 373.24408722 C327.23594368 373.9528981 327.2369373 374.66170897 327.23796103 375.39199897 C327.30421168 422.72235307 327.3505573 470.05273003 327.39393139 517.38311005 C331.65171866 518.31126117 335.44415895 518.43396013 339.81190014 518.29717255 C340.51035549 518.27593323 341.20881084 518.25469391 341.92843151 518.23281097 C343.39675838 518.18675476 344.86499822 518.13784501 346.33314037 518.08623505 C348.58434502 518.0080088 350.83569016 517.94102339 353.08729076 517.87529755 C354.51634896 517.82909012 355.94538649 517.78223771 357.37440014 517.73467255 C358.67272778 517.69165009 359.97105541 517.64862762 361.30872631 517.60430145 C364.30455957 517.58700744 364.30455957 517.58700744 366.39393139 516.38311005 C366.39355167 515.31931938 366.39317195 514.25552872 366.39278072 513.15950197 C366.37611389 466.28303474 366.36068582 419.40656732 366.35158825 372.53009796 C366.35145019 371.82055664 366.35131214 371.11101532 366.35116989 370.37997274 C366.34817708 354.96021624 366.34540688 339.54045971 366.34286606 324.12070313 C366.34161871 316.55900217 366.34032216 308.99730122 366.33899975 301.43560028 C366.33886899 300.68311488 366.33873823 299.93062947 366.33860351 299.15534148 C366.33434116 274.75935675 366.32682911 250.36337433 366.31763417 225.96739099 C366.30820336 200.90010094 366.30204636 175.83281217 366.3000164 150.76552038 C366.29972824 147.22600765 366.2994026 143.68649492 366.29905415 140.14698219 C366.29898672 139.45034631 366.2989193 138.75371043 366.29884983 138.03596437 C366.29766751 126.81611874 366.29302782 115.59627707 366.28709935 104.37643306 C366.28121478 93.10030301 366.27904378 81.82417682 366.28043001 70.54804491 C366.28107213 64.43694405 366.28007003 58.32585482 366.27472591 52.21475601 C366.26987156 46.62302232 366.26960622 41.03130811 366.27303249 35.43957353 C366.27345617 33.41388999 366.27217762 31.38820525 366.26904821 29.36252408 C366.26504742 26.6135253 366.26719107 23.86459729 366.27088356 21.11559963 C366.26825655 20.32539863 366.26562953 19.53519762 366.26292291 18.72105113 C366.29930778 6.76963328 366.29930778 6.76963328 369.26893139 3.00811005 C373.05736744 0.11107072 376.34963855 0.24826344 380.97327709 0.22197723 C381.63707378 0.21701233 382.30087048 0.21204742 382.98478222 0.20693207 C385.1797696 0.19233334 387.37468469 0.18551189 389.56971264 0.17998505 C391.09804822 0.17423119 392.6263838 0.16847349 394.15471935 0.1627121 C397.36002977 0.15220827 400.56531516 0.14636173 403.77064037 0.14287567 C407.86961636 0.13739576 411.96825936 0.11337614 416.06713104 0.08490372 C419.22507207 0.0662406 422.38293352 0.06106977 425.54092503 0.05953979 C427.05154456 0.05652043 428.56216294 0.04851611 430.07272816 0.03535461 C432.19087385 0.01821841 434.3082144 0.02019236 436.42640209 0.02666473 C437.6298074 0.0230191 438.8332127 0.01937347 440.07308483 0.01561737 C444.53110994 0.50895289 447.71500012 1.85292764 451.04216343 4.88531309 C453.17021825 8.81753297 452.80598134 12.67364759 452.77424812 17.07558346 C452.77890804 18.07484133 452.78356796 19.0740992 452.78836909 20.10363761 C452.80039625 23.47894407 452.79089383 26.85385372 452.78161144 30.22916412 C452.78578097 32.6626876 452.79125638 35.09620914 452.79793125 37.52972704 C452.80941609 42.83456869 452.81149846 48.13929204 452.80538082 53.44413376 C452.79630801 61.3325158 452.80430704 69.22081576 452.81567206 77.10919149 C452.83536576 91.19628986 452.83768122 105.28335148 452.83247686 119.37046033 C452.82792438 131.69874872 452.82851299 144.02702253 452.83431721 156.35531044 C452.83507406 158.00730797 452.83583004 159.65930551 452.83658515 161.31130304 C452.83773031 163.80053894 452.83888019 166.28977484 452.8400444 168.77901073 C452.85075372 191.92998074 452.85547019 215.08094588 452.84757423 238.23191738 C452.84727706 239.10511478 452.84697989 239.97831218 452.84667371 240.8779701 C452.84422463 247.9695109 452.84161312 255.06105165 452.83898958 262.15259239 C452.82888589 289.81856598 452.83724309 317.4844789 452.86048412 345.15044403 C452.88653829 376.21560621 452.89940961 407.28073185 452.89229637 438.34590536 C452.89158028 441.65630153 452.8909059 444.96669771 452.89025593 448.27709389 C452.89008612 449.09222955 452.88991631 449.90736522 452.88974136 450.74720197 C452.8874354 463.0685239 452.89542948 475.38981199 452.9085474 487.71112633 C452.9234338 501.71872223 452.92433524 515.72623862 452.90647649 529.73383277 C452.89688823 537.57799045 452.89839957 545.42196289 452.91571118 553.26610834 C452.92738479 559.11404818 452.91828104 564.96183274 452.90088881 570.80976266 C452.897098 573.18252843 452.9001383 575.55531639 452.91050046 577.92806255 C452.92353853 581.14065441 452.91220457 584.35224793 452.89450264 587.56479549 C452.90415315 588.49708085 452.91380366 589.4293662 452.92374662 590.38990262 C452.87586912 594.58956541 452.75812102 596.80019886 450.48764569 600.43425471 C446.77602133 603.88908087 443.58407052 603.53381383 438.74615002 603.53701019 C437.94759273 603.54139245 437.14903545 603.5457747 436.32627946 603.55028975 C433.63553025 603.56370377 430.94481381 603.56986241 428.25403881 603.57598114 C426.33084495 603.58387999 424.40765258 603.5921488 422.48446178 603.60076141 C416.15612235 603.62700431 409.82777622 603.64229025 403.49940014 603.65654755 C401.3233321 603.66190609 399.14726412 603.6672836 396.97119617 603.6726799 C387.9218198 603.694311 378.87244524 603.71304913 369.82304955 603.72430229 C356.84078872 603.74055067 343.85882678 603.77374752 330.87667865 603.83070314 C321.75561647 603.86935945 312.63463437 603.88892981 303.51349241 603.89422286 C298.06214326 603.89788192 292.61111272 603.90996226 287.15985203 603.94232559 C282.03227545 603.9723307 276.90521152 603.97874505 271.77756596 603.96694183 C269.89456557 603.96672047 268.01154191 603.97507707 266.12862301 603.99259567 C263.55934843 604.01520086 260.99194644 604.00703369 258.42266369 603.99111176 C257.67596627 604.00499384 256.92926885 604.01887593 256.15994424 604.03317869 C252.50508808 603.97729908 250.5064344 603.4587233 247.45463562 601.40760994 C243.39799486 595.45366984 244.24660777 587.41740829 244.26085281 580.40008068 C244.25860979 579.53826576 244.25636676 578.67645083 244.25405577 577.78852031 C244.24775685 574.91099466 244.24847774 572.03351478 244.24917126 569.15598297 C244.24603533 567.06804138 244.24246002 564.9801004 244.23848385 562.89216024 C244.22880614 557.1624211 244.22523872 551.43269194 244.22264087 545.70294583 C244.21874096 539.52096083 244.20910424 533.33898458 244.20008373 527.15700531 C244.18515631 516.44795822 244.17360262 505.73891242 244.16413593 495.02985954 C244.14970931 478.82794628 244.12694961 462.62605048 244.10247082 446.42414969 C244.09268172 439.92091631 244.08316061 433.41768252 244.07364082 426.91444874 C244.07258206 426.19201316 244.07152329 425.46957759 244.07043244 424.72525003 C244.04529463 407.5383707 244.02279079 390.35148819 244.00110912 373.16460419 C244.00015868 372.41277764 243.99920825 371.66095109 243.99822901 370.88634192 C243.97606373 353.33489197 243.9551841 335.78344106 243.93653393 318.231987 C243.93573018 317.47645031 243.93492643 316.72091362 243.93409832 315.94248189 C243.93004732 312.13242086 243.92600577 308.32235983 243.92196506 304.5122988 C243.92116606 303.75924832 243.92036707 303.00619785 243.91954387 302.23032766 C243.91793156 300.71035854 243.91632073 299.19038942 243.91471141 297.6704203 C243.88809995 272.57600561 243.85474918 247.48160695 243.81393326 222.38721123 C243.80818316 218.84616954 243.80252458 215.30512771 243.79692936 211.76408577 C243.79582756 211.06718297 243.79472575 210.37028017 243.79359056 209.65225911 C243.77606607 198.42395104 243.76591262 187.1956477 243.75867691 175.96732877 C243.75129706 164.6934554 243.73676547 153.41960907 243.71525116 142.14575221 C243.7038263 136.0349553 243.69572777 129.92419928 243.6962595 123.81339073 C243.69668527 118.22584158 243.68804163 112.63838461 243.6720097 107.05085913 C243.66783402 105.02348372 243.66707519 102.99609798 243.6699738 100.96872034 C243.67341708 98.22468017 243.66472071 95.48094396 243.6528511 92.73693371 C243.65678663 91.93981994 243.66072216 91.14270618 243.66477695 90.32143745 C243.63787306 85.03434231 243.63787306 85.03434231 241.39393139 80.38311005 C236.69821248 78.03525059 229.67317544 79.07120102 224.45423412 79.03301239 C222.79068061 79.01642726 221.12719909 78.98910325 219.46399975 78.95098114 C217.06656963 78.89631584 214.67080628 78.8743596 212.27283764 78.85967255 C211.15710117 78.82566849 211.15710117 78.82566849 210.01882458 78.79097748 C207.66652433 78.7447607 207.66652433 78.7447607 204.39393139 79.38311005 C201.39727397 83.14965489 201.01921984 86.11313011 201.02034378 90.84368992 C201.01335404 92.15745171 201.00636429 93.47121349 200.99916273 94.82478625 C201.00655606 96.28116428 201.01421831 97.73754096 201.02212048 99.19391632 C201.019546 100.74218364 201.01564514 102.29044923 201.01053089 103.83871025 C201.00024416 108.09535348 201.00856885 112.35178982 201.01982772 116.60842311 C201.02867058 121.19810347 201.0201813 125.78775421 201.01362133 130.37743378 C201.00445936 138.33096507 201.00579763 146.28443869 201.01380634 154.23797035 C201.02502603 165.74183509 201.01600778 177.24561743 201.00124454 188.74947499 C200.97746513 207.41893721 200.96410575 226.08838928 200.9600935 244.75786591 C200.95984863 245.8754697 200.95960376 246.99307349 200.95935147 248.14454406 C200.95680472 260.61774301 200.95623919 273.09094118 200.95728588 285.56414032 C200.95761891 290.08900197 200.95790431 294.61386362 200.95814037 299.13872528 C200.95823455 300.81354745 200.95823455 300.81354745 200.95833064 302.52220441 C200.95893489 321.12240829 200.94407832 339.72256523 200.91730732 358.32274956 C200.90147641 369.80155021 200.89927113 381.28019964 200.91444134 392.75900196 C200.92388445 400.61948277 200.91918514 408.47987219 200.90322752 416.34034223 C200.89450553 420.87957965 200.89245887 425.41857456 200.90775394 429.95779991 C200.92163277 434.10969672 200.9173004 438.26115333 200.89823293 442.41302585 C200.89460708 443.91832062 200.89781249 445.42364984 200.9083826 446.92891187 C200.92174585 448.96869406 200.90829102 451.0086 200.89336014 453.04837132 C200.89352114 454.75076893 200.89352114 454.75076893 200.8936854 456.48755842 C200.28093701 460.03779424 199.22117087 461.21618171 196.39393139 463.38311005 C193.72255993 463.90882111 193.72255993 463.90882111 190.63831615 463.94487762 C189.47933315 463.96782394 188.32035015 463.99077026 187.12624645 464.01441193 C185.87524654 464.01877762 184.62424664 464.02314331 183.33533764 464.0276413 C182.04006649 464.04654922 180.74479534 464.06545715 179.41027355 464.08493805 C176.66400245 464.12424999 173.91802211 464.15075473 171.17151928 464.16704559 C167.68848311 464.18781817 164.20618701 464.2302516 160.72347641 464.28133869 C157.36500305 464.32957957 154.0064618 464.366259 150.64783764 464.4026413 C149.41505581 464.41712814 148.18227398 464.43161499 146.91213512 464.44654083 C123.61242992 464.58754396 123.61242992 464.58754396 119.39393139 461.38311005 C117.6426431 457.09940765 117.14270235 453.46505757 117.13780499 448.85915852 C117.13157289 447.55672256 117.1253408 446.25428661 117.11891985 444.9123829 C117.12207822 443.47398007 117.12541698 442.03557763 117.12891674 440.5971756 C117.12534517 439.06383218 117.12089421 437.5304906 117.11564016 435.99715203 C117.10372021 431.78649446 117.10415795 427.57591468 117.10657525 423.36524427 C117.10699465 418.82331449 117.09589753 414.28141154 117.08611584 409.73949432 C117.07066016 401.87057423 117.06225118 394.00167206 117.05840588 386.13273811 C117.05266026 374.75230393 117.03407719 363.37191803 117.01196533 351.99150517 C116.97624585 333.52333382 116.94793101 315.05515974 116.92566967 296.58696747 C116.92433468 295.48162933 116.92299969 294.37629119 116.92162424 293.23745795 C116.9108454 284.26685089 116.90042486 275.29624342 116.89002419 266.32563591 C116.8809134 258.47980352 116.87166125 250.63397131 116.86219311 242.78813934 C116.86086237 241.68323653 116.85953162 240.57833373 116.85816056 239.43994901 C116.83575497 221.03747866 116.80557305 202.635029 116.76980066 184.23257989 C116.74810416 172.8758257 116.73350629 161.51910372 116.7279619 150.16232993 C116.72372455 142.38738487 116.71251291 134.61247052 116.69573796 126.83754245 C116.68630531 122.34709759 116.680229 117.85671018 116.68280125 113.36625481 C116.68510299 109.26020032 116.6783468 105.15426678 116.66422242 101.04823687 C116.66074451 99.55847096 116.6606879 98.06869256 116.66429502 96.57892696 C116.66870279 94.56246326 116.65976469 92.54598331 116.65005779 90.52953815 C116.64886362 89.40691981 116.64766944 88.28430147 116.64643908 87.12766439 C116.59368264 84.16692072 116.59368264 84.16692072 114.39393139 81.38311005 C110.80117528 80.18552468 107.50923322 80.22093181 103.76893139 80.2151413 C102.65397289 80.2101487 102.65397289 80.2101487 101.51648998 80.20505524 C99.94634653 80.1999971 98.37619235 80.19764657 96.80604076 80.19780731 C94.40286656 80.19561819 92.00014956 80.17744397 89.59705639 80.15850067 C88.07101629 80.15556706 86.54497402 80.15358205 85.01893139 80.1526413 C83.94071117 80.14186302 83.94071117 80.14186302 82.84070873 80.130867 C79.13312863 80.14787195 77.563592 80.27000297 74.39393139 82.38311005 C73.29912073 85.66754202 73.26682339 88.07382071 73.26364613 91.53233147 C73.2582096 93.47517558 73.2582096 93.47517558 73.25266325 95.45726907 C73.25365994 96.90312034 73.25474208 98.34897155 73.25590038 99.79482269 C73.25348327 101.32415008 73.25062129 102.85347681 73.24735105 104.38280261 C73.23958252 108.59635869 73.23797782 112.8098985 73.23729992 117.02346087 C73.23546296 121.56342854 73.22785772 126.10338663 73.22082043 130.64334869 C73.20928559 138.51395168 73.20104614 146.38455251 73.19470119 154.25516129 C73.18438617 166.69061704 73.16382588 179.12604597 73.14158154 191.56148529 C73.13410157 195.81365004 73.12668789 200.06581491 73.11929417 204.31797981 C73.1174436 205.38068316 73.11559303 206.44338651 73.11368639 207.538293 C73.09275201 219.63988305 73.07392678 231.74147607 73.05604076 243.84307098 C73.05440258 244.94958101 73.0527644 246.05609103 73.05107658 247.19613166 C73.0247825 265.13393637 73.00614437 283.07174313 72.98944886 301.00955896 C72.97204176 319.41421434 72.94321166 337.8188292 72.90455949 356.22345221 C72.88113262 367.58231429 72.86716251 378.94111031 72.86523186 390.29999675 C72.86312605 398.08107469 72.85022683 405.86208686 72.82875253 413.64313529 C72.81669851 418.13585514 72.80958877 422.62844439 72.81546497 427.12117958 C72.82074533 431.2318314 72.81233526 435.3422164 72.79290859 439.45282359 C72.78831923 440.94203894 72.78882236 442.43128024 72.79485698 443.92049043 C72.8023157 445.94105852 72.78963363 447.96167117 72.77589893 449.98220634 C72.7745424 451.10569147 72.77318588 452.22917659 72.77178824 453.38670671 C72.34185488 456.79607656 71.44158727 458.64456433 69.39393139 461.38311005 C65.70202052 463.84438396 63.83923802 463.64728436 59.43152905 463.67363739 C58.72711178 463.68035461 58.02269451 463.68707184 57.29693127 463.69399261 C54.9672138 463.71299714 52.63778406 463.71689808 50.30799389 463.71904755 C48.68758049 463.72547409 47.06716826 463.73220234 45.44675732 463.73921967 C42.04891298 463.75119877 38.65117036 463.75489988 35.25330639 463.75371552 C30.90300349 463.75351236 26.55335412 463.78080773 22.20320606 463.81525993 C18.85570319 463.83751787 15.50835783 463.84155339 12.16078854 463.84049606 C10.55723221 463.84285395 8.95367167 463.85168815 7.35018826 463.8671608 C5.10470367 463.88679825 2.86063101 463.88099289 0.6151228 463.86894989 C-1.29990543 463.87322495 -1.29990543 463.87322495 -3.2536211 463.87758636 C-7.17993699 463.29846612 -8.81728396 462.15004528 -11.60606861 459.38311005 C-12.74767215 457.09990298 -12.74187673 455.8153348 -12.76260471 453.27711678 C-12.77203201 452.41044298 -12.7814593 451.54376918 -12.79117227 450.65083253 C-12.7965352 449.69128935 -12.80189814 448.73174617 -12.80742359 447.74312592 C-12.81692374 446.72576973 -12.82642389 445.70841354 -12.83621192 444.66022837 C-12.86696936 441.21322323 -12.89040398 437.76620842 -12.9136858 434.3191452 C-12.93373267 431.84045793 -12.9540988 429.36177321 -12.9747591 426.88309097 C-13.02991738 420.05039241 -13.07776808 413.21766438 -13.1235714 406.38489866 C-13.15283229 402.02888035 -13.1841562 397.67287811 -13.2156496 393.31687546 C-13.69450988 326.6394121 -13.82619591 259.96118769 -13.843503 193.28216934 C-13.84442548 189.80133056 -13.84535826 186.32049179 -13.84630299 182.83965302 C-13.84652751 181.976728 -13.84675204 181.11380299 -13.84698337 180.22472873 C-13.85101769 165.91607532 -13.86883195 151.60746994 -13.89166251 137.29883544 C-13.91535223 122.32536858 -13.92783434 107.35192639 -13.92900443 92.3784405 C-13.92991338 84.07964909 -13.93548241 75.78092392 -13.95382404 67.48215103 C-13.96917956 60.51843577 -13.97436572 53.55480816 -13.96608594 46.59107916 C-13.96218718 43.05692224 -13.9630777 39.52294266 -13.97714329 35.98880768 C-13.99224545 32.16064188 -13.9840112 28.33272528 -13.97356129 24.50453949 C-13.98161769 23.39835498 -13.9896741 22.29217047 -13.99797463 21.15246522 C-13.95928632 15.10004844 -13.87380431 8.6836683 -10.60606861 3.38311005 C-7.04182126 0.66961602 -4.43320254 0.00718914 0 0 Z M407.39393139 87.38311005 C406.53436415 90.36119695 406.26870264 93.00660596 406.26809025 96.10202217 C406.2654825 97.05275317 406.26287475 98.00348417 406.26018798 98.98302519 C406.26241871 100.02445658 406.26464943 101.06588796 406.26694775 102.13887787 C406.26538776 103.24752713 406.26382776 104.35617638 406.2622205 105.49842107 C406.25822059 109.22643625 406.26139627 112.95441095 406.26453686 116.68242645 C406.26318239 119.34968943 406.26143848 122.01694959 406.2592268 124.68421173 C406.25477662 131.18414835 406.25574215 137.68407344 406.25863944 144.18401052 C406.26089603 149.46469659 406.26120488 154.74537942 406.26011562 160.02606583 C406.25996239 160.77706932 406.25980916 161.52807281 406.25965128 162.30183398 C406.25933156 163.82736338 406.25900735 165.35289278 406.25867869 166.87842219 C406.2558262 181.18767753 406.25910751 195.49692647 406.26447906 209.80618076 C406.26894871 222.09354581 406.26816939 234.38090142 406.2635603 246.6682663 C406.2582136 260.9287403 406.25609895 275.18920869 406.25917256 289.44968355 C406.25949112 290.96905096 406.25980549 292.48841838 406.26011562 294.0077858 C406.2602699 294.7553983 406.26042417 295.50301081 406.26058313 296.27327824 C406.26144786 301.55079216 406.25998638 306.82830252 406.25763607 312.10581589 C406.2548369 318.5326063 406.25557889 324.9593845 406.26091681 331.3861735 C406.26355196 334.66738888 406.26402721 337.94857954 406.26126766 341.22979546 C406.25855586 344.78032083 406.26193767 348.3307879 406.26694775 351.88130951 C406.26471702 352.92720234 406.2624863 353.97309516 406.26018798 355.05068171 C406.26279573 355.99619721 406.26540348 356.94171272 406.26809025 357.9158802 C406.2682526 358.73618615 406.26841495 359.55649209 406.26858222 360.40165579 C406.2694763 362.45907633 406.2694763 362.45907633 407.39393139 364.38311005 C408.71393139 364.38311005 410.03393139 364.38311005 411.39393139 364.38311005 C412.14331735 324.59246237 412.51893139 284.80589412 412.51893139 245.00811005 C412.51893139 243.96590553 412.51893139 242.92370102 412.51893139 241.84991455 C412.51099116 190.35841955 411.9850794 138.87072371 411.39393139 87.38311005 C410.07393139 87.38311005 408.75393139 87.38311005 407.39393139 87.38311005 Z " fill="#F9F9F9" transform="translate(276.606068611145,186.61688995361328)"/>
<path d="M0 0 C0.64414352 -0.00335861 1.28828705 -0.00671722 1.95195007 -0.01017761 C4.08745235 -0.01969743 6.22287624 -0.02163155 8.35839844 -0.02270508 C9.84332308 -0.02591808 11.32824741 -0.02928218 12.81317139 -0.03279114 C15.93030531 -0.03878578 19.0474115 -0.04063081 22.16455078 -0.04003906 C26.15026227 -0.03993768 30.13579465 -0.05356367 34.12146378 -0.07081127 C37.19104826 -0.08195797 40.26058991 -0.08395741 43.33019257 -0.08342934 C44.79893356 -0.08460644 46.26767576 -0.08901303 47.73639679 -0.0967617 C49.79704607 -0.10661114 51.85731268 -0.10366381 53.91796875 -0.09765625 C55.67430634 -0.09979378 55.67430634 -0.09979378 57.46612549 -0.10197449 C62.38448526 0.27199165 67.27601793 1.44856331 70.71777344 5.14526367 C72.00135977 11.33192696 71.85321078 17.53166199 71.83427429 23.82720947 C71.83493528 25.60827083 71.83493528 25.60827083 71.83560961 27.42531323 C71.83581288 30.74990832 71.83147654 34.07444309 71.82531282 37.3990289 C71.81964571 41.07328662 71.81991549 44.74754494 71.81939888 48.42180634 C71.81764952 54.98100562 71.81209881 61.54019355 71.80414772 68.09938812 C71.79206542 78.07332331 71.78529849 88.04725716 71.77964311 98.02119783 C71.77202251 111.32637797 71.76294728 124.63155621 71.75105381 137.93673325 C71.72917409 162.57191742 71.71355535 187.20709166 71.70806885 211.84228516 C71.70775779 213.21519035 71.70744664 214.58809555 71.70713539 215.96100074 C71.70587842 221.54853527 71.70466382 227.13606981 71.70347784 232.72360435 C71.69491769 272.9870109 71.68216314 313.25040321 71.64376831 353.51379395 C71.64304458 354.27365861 71.64232085 355.03352328 71.64157518 355.81641416 C71.62603562 372.06731105 71.60911623 388.3182063 71.59089679 404.56910041 C71.58213718 412.3833877 71.57360407 420.19767523 71.56518555 428.01196289 C71.56434481 428.78785091 71.56350407 429.56373892 71.56263786 430.3631387 C71.53503366 455.93664764 71.52449526 481.51013194 71.52197819 507.08365461 C71.51926757 533.75735015 71.5003569 560.43098522 71.46061229 587.10465255 C71.45503044 590.85481504 71.44963115 594.60497777 71.44434166 598.35514069 C71.44329562 599.09237485 71.44224959 599.82960901 71.44117186 600.5891836 C71.42489567 612.39177882 71.42564009 624.19431277 71.43297626 635.99691437 C71.43991792 647.74768097 71.42849299 659.49829512 71.39911053 671.24903026 C71.38377272 677.59796391 71.37667379 683.94663453 71.39117622 690.2955761 C71.40424712 696.09343207 71.39459588 701.89077554 71.36633571 707.68857327 C71.36018879 709.78992731 71.36258939 711.89132626 71.37414417 713.99265751 C71.38856178 716.83479254 71.37259024 719.67514596 71.34862995 722.51717758 C71.36016067 723.34264149 71.3716914 724.16810539 71.38357154 725.01858336 C71.31815285 728.92079559 71.09439126 730.7398804 68.39381945 733.64671743 C65.00695647 735.54331068 62.04890296 735.81200359 58.25538635 735.88717651 C57.14477635 735.93006485 57.14477635 735.93006485 56.01172978 735.97381961 C53.58030138 736.05714515 51.15030107 736.10635902 48.71777344 736.14526367 C47.90755131 736.15926539 47.09732919 736.17326711 46.26255488 736.18769312 C39.88024635 736.28278008 33.49883668 736.2815894 27.1159668 736.2746582 C24.96898177 736.2759847 22.82199697 736.27773133 20.67501259 736.27985668 C14.79768615 736.28433985 8.92037678 736.28248171 3.04305005 736.27942491 C-2.04238467 736.27758873 -7.12781548 736.27946195 -12.21324998 736.28132659 C-29.11208955 736.28745732 -46.01091539 736.28138667 -62.90975285 736.27252245 C-67.33259381 736.2702267 -71.7554349 736.26828814 -76.17827606 736.26641464 C-112.6329114 736.25081019 -149.08752176 736.22079831 -185.54213858 736.18124354 C-205.18248964 736.15998705 -224.82283489 736.14237685 -244.4631958 736.13348389 C-245.85646871 736.13284861 -245.85646871 736.13284861 -247.27788854 736.13220051 C-251.0527315 736.13048812 -254.82757447 736.12879831 -258.60241744 736.1271226 C-295.59084763 736.11068535 -332.57918845 736.07523253 -369.56756687 736.00996017 C-373.28445488 736.0034651 -377.00134299 735.9970385 -380.7182312 735.99066162 C-381.63510767 735.98907935 -382.55198415 735.98749709 -383.49664476 735.98586687 C-398.3054261 735.96073275 -413.11417199 735.95231057 -427.92297243 735.94978618 C-442.8743445 735.94681147 -457.82560113 735.92524069 -472.7769199 735.88493973 C-481.73120234 735.86134072 -490.68525084 735.8517806 -499.63956016 735.86171483 C-505.64474748 735.86699444 -511.64971914 735.85419783 -517.65484488 735.82658823 C-521.08880085 735.81131928 -524.52227263 735.80409446 -527.95624268 735.8186686 C-531.6554614 735.8301996 -535.3532891 735.81132834 -539.05239868 735.78450012 C-540.12917454 735.79517334 -541.2059504 735.80584656 -542.31535584 735.81684321 C-549.51706459 735.71863041 -549.51706459 735.71863041 -553.42159081 732.79281139 C-556.64282544 728.20923162 -556.42611973 724.08787678 -556.41593933 718.69387817 C-556.41820489 717.82096252 -556.42047044 716.94804687 -556.42280465 716.04867923 C-556.42915449 713.1122735 -556.42831466 710.17591381 -556.42749023 707.23950195 C-556.43048111 705.13882385 -556.43388347 703.0381463 -556.43766785 700.93746948 C-556.44651932 695.2226147 -556.44884644 689.50777489 -556.44948363 683.79291391 C-556.45043189 679.02637348 -556.45410924 674.25983655 -556.45765573 669.49329746 C-556.46580466 658.24984299 -556.46823956 647.00639653 -556.4675293 635.76293945 C-556.46692839 624.15511611 -556.47748187 612.54733922 -556.49327296 600.93952763 C-556.50633765 590.98193204 -556.51171364 581.02435165 -556.51107389 571.06674755 C-556.51081858 565.11586366 -556.51368759 559.16502103 -556.52425194 553.21414566 C-556.53391489 547.6180147 -556.53402449 542.02196461 -556.52673531 536.42583084 C-556.52568722 534.37030418 -556.52806559 532.31477254 -556.53409576 530.25925446 C-556.54178697 527.45627928 -556.5371899 524.65358536 -556.52946472 521.85061646 C-556.53460828 521.03456409 -556.53975185 520.21851172 -556.54505128 519.37773049 C-556.5114662 513.8745302 -555.82131672 510.36526952 -552.70160389 505.86535072 C-549.16475093 503.35078017 -545.75399064 503.58587044 -541.57218933 503.62387085 C-540.68349618 503.61621976 -539.79480302 503.60856866 -538.87917978 503.60068572 C-535.89504403 503.58001337 -532.91167707 503.58801162 -529.92749023 503.59594727 C-527.79049465 503.58725481 -525.65350531 503.57688911 -523.51652527 503.56497192 C-517.70649007 503.5381471 -511.89671471 503.53703967 -506.08662963 503.54209852 C-501.23819193 503.54423533 -496.3898071 503.53447775 -491.5413807 503.52488768 C-480.102661 503.50268097 -468.66407264 503.50183119 -457.2253418 503.51391602 C-445.4225339 503.52599379 -433.62020296 503.50138219 -421.81747645 503.45877588 C-411.68740299 503.42355142 -401.55748137 503.41154008 -391.42734891 503.41805136 C-385.37569649 503.42167926 -379.32438412 503.41638354 -373.27278709 503.38862228 C-367.58038026 503.36348726 -361.88871678 503.36733208 -356.19632149 503.39344406 C-354.10776901 503.3981799 -352.01916442 503.39269056 -349.93067169 503.37619781 C-347.07732248 503.35529109 -344.22647408 503.37143311 -341.37321472 503.39682007 C-340.54810636 503.3820715 -339.722998 503.36732293 -338.87288636 503.35212743 C-331.82423074 503.48392062 -331.36318343 504.93301493 -325.28222656 510.14526367 C-324.95222656 556.34526367 -324.62222656 602.54526367 -324.28222656 650.14526367 C-221.98222656 650.14526367 -119.68222656 650.14526367 -14.28222656 650.14526367 C-14.29382813 604.25463867 -14.30542969 558.36401367 -14.31738281 511.08276367 C-14.32218481 483.819613 -14.32691905 456.55646266 -14.33039153 429.29331183 C-14.33243277 413.30747085 -14.33452071 397.32162988 -14.33675256 381.33578892 C-14.3370224 379.4021356 -14.33729077 377.46848227 -14.33755765 375.53482895 C-14.34182581 344.69902582 -14.34933057 313.86322452 -14.35852378 283.0274225 C-14.3679537 251.34017767 -14.37411139 219.65293385 -14.37614155 187.96568764 C-14.37642971 183.49186508 -14.37675535 179.01804253 -14.37710381 174.54421997 C-14.37717123 173.6636925 -14.37723865 172.78316503 -14.37730812 171.8759549 C-14.37849063 157.69199914 -14.38313084 143.5080465 -14.3890586 129.32409201 C-14.39494189 115.07043325 -14.39719553 100.81677761 -14.39572794 86.56311768 C-14.39496637 78.09090751 -14.39700399 69.61870869 -14.40302411 61.14650056 C-14.40677015 55.48895292 -14.40689291 49.83141272 -14.40405838 44.17386457 C-14.40254676 40.94908481 -14.40317213 37.72433094 -14.40710974 34.49955261 C-14.41110602 31.02565319 -14.40896965 27.55180989 -14.40527439 24.07791138 C-14.4079014 23.07695944 -14.41052842 22.0760075 -14.41323504 21.04472369 C-14.37750247 6.24053958 -14.37750247 6.24053958 -10.84472656 2.70776367 C-6.84294516 0.26765306 -4.71638172 0.01539586 0 0 Z M-474.28222656 587.14526367 C-475.29890142 590.19528823 -475.41479089 592.27838788 -475.42749023 595.47119141 C-475.43387009 596.5591954 -475.44024994 597.6471994 -475.44682312 598.76817322 C-475.44793594 599.94319901 -475.44904877 601.11822479 -475.45019531 602.32885742 C-475.45352371 603.53590836 -475.45685211 604.74295929 -475.46028137 605.98658752 C-475.46534758 608.54118468 -475.46768979 611.09578845 -475.4675293 613.65039062 C-475.4697158 617.56350576 -475.48787514 621.47633906 -475.50683594 625.3894043 C-475.50976987 627.86922104 -475.51175467 630.34903912 -475.51269531 632.82885742 C-475.51988083 634.00185898 -475.52706635 635.17486053 -475.5344696 636.38340759 C-475.53139297 637.47456375 -475.52831635 638.56571991 -475.52514648 639.68994141 C-475.5265715 640.64907944 -475.52799652 641.60821747 -475.52946472 642.59642029 C-475.2641263 645.33186403 -474.84383899 646.88907383 -473.28222656 649.14526367 C-470.1724746 651.30047134 -467.4882877 651.39795356 -463.7668457 651.40405273 C-462.66212418 651.41035706 -461.55740265 651.41666138 -460.41920471 651.42315674 C-458.63630287 651.41708405 -458.63630287 651.41708405 -456.81738281 651.41088867 C-455.59192245 651.41280212 -454.3664621 651.41471558 -453.10386658 651.41668701 C-450.51235753 651.41804797 -447.92084165 651.41435775 -445.3293457 651.40600586 C-441.36361348 651.39531459 -437.39833521 651.4058998 -433.43261719 651.41870117 C-430.91503806 651.41737938 -428.39745922 651.41481659 -425.87988281 651.41088867 C-424.69330582 651.41493713 -423.50672882 651.4189856 -422.28419495 651.42315674 C-421.17632126 651.41685242 -420.06844757 651.4105481 -418.92700195 651.40405273 C-417.95533585 651.40246155 -416.98366974 651.40087036 -415.9825592 651.39923096 C-413.02767927 651.1213234 -410.91801982 650.50402181 -408.28222656 649.14526367 C-406.02063178 645.75287149 -406.021792 644.54116529 -405.99169922 640.55981445 C-405.97893951 639.41497589 -405.96617981 638.27013733 -405.95303345 637.09060669 C-405.9508078 635.85309662 -405.94858215 634.61558655 -405.94628906 633.34057617 C-405.93963226 632.06930878 -405.93297546 630.79804138 -405.92611694 629.48825073 C-405.91598202 626.79646831 -405.910436 624.10508965 -405.91162109 621.41333008 C-405.91182417 617.97096821 -405.88453538 614.52943301 -405.85007668 611.08726692 C-405.82243402 607.79673447 -405.82365768 604.50620897 -405.82128906 601.21557617 C-405.80691803 599.98211456 -405.792547 598.74865295 -405.77774048 597.47781372 C-405.78697037 595.7510994 -405.78697037 595.7510994 -405.79638672 593.98950195 C-405.79353668 592.97928986 -405.79068665 591.96907776 -405.78775024 590.92825317 C-406.43479642 587.2865768 -407.58189274 585.65607967 -410.28222656 583.14526367 C-413.06128457 582.39923829 -413.06128457 582.39923829 -416.18066406 582.51416016 C-417.36869629 582.50162704 -418.55672852 582.48909393 -419.78076172 582.47618103 C-421.05999512 582.48943924 -422.33922852 582.50269745 -423.65722656 582.51635742 C-424.97384277 582.51394547 -426.29045898 582.51153351 -427.64697266 582.50904846 C-430.43130414 582.50619266 -433.21483021 582.52086787 -435.99902344 582.54833984 C-439.56376057 582.58242441 -443.12705794 582.57640358 -446.69186401 582.55767727 C-450.09712754 582.54455299 -453.50197306 582.56282562 -456.90722656 582.57885742 C-458.18645996 582.57389755 -459.46569336 582.56893768 -460.78369141 582.56382751 C-461.97172363 582.57966385 -463.15975586 582.59550018 -464.38378906 582.61181641 C-465.9512085 582.62111427 -465.9512085 582.62111427 -467.55029297 582.63059998 C-470.98319745 583.27731822 -472.14758013 584.43051599 -474.28222656 587.14526367 Z M-101.28222656 691.14526367 C-101.28222656 692.79526367 -101.28222656 694.44526367 -101.28222656 696.14526367 C-90.64258511 696.1915611 -80.00296755 696.22711967 -69.36324596 696.24888802 C-64.42303604 696.2593346 -59.48289493 696.27350977 -54.54272461 696.29614258 C-49.77707046 696.31783974 -45.01148258 696.3298257 -40.24578285 696.33501816 C-38.42567209 696.33871954 -36.60556503 696.34594722 -34.78548241 696.35672379 C-32.24029008 696.37119718 -29.69537321 696.37324336 -27.15014648 696.37231445 C-26.39417175 696.379505 -25.63819702 696.38669556 -24.85931396 696.394104 C-21.1125747 696.37926285 -19.48297114 696.27909339 -16.28222656 694.14526367 C-16.77722656 692.66026367 -16.77722656 692.66026367 -17.28222656 691.14526367 C-20.27070591 689.651024 -23.32929652 690.00660405 -26.60595703 690.01586914 C-27.36060242 690.01411682 -28.1152478 690.0123645 -28.89276123 690.01055908 C-31.39500203 690.00614708 -33.8971725 690.00907686 -36.39941406 690.01245117 C-38.1357525 690.0117778 -39.87209084 690.0108075 -41.60842896 690.009552 C-45.25181982 690.0080758 -48.8951862 690.01022659 -52.53857422 690.01489258 C-57.2082407 690.02058135 -61.87784961 690.01731578 -66.54751396 690.01132011 C-70.13514641 690.00770519 -73.72276524 690.00885753 -77.3103981 690.01144791 C-79.03198376 690.01211504 -80.75357066 690.01129621 -82.47515488 690.00896835 C-84.8833722 690.00642753 -87.29149662 690.01030302 -89.69970703 690.01586914 C-90.76745865 690.01283279 -90.76745865 690.01283279 -91.85678101 690.00973511 C-95.14360587 690.02380112 -98.13884982 690.13204373 -101.28222656 691.14526367 Z " fill="#FAFAFA" transform="translate(774.2822265625,186.854736328125)"/>
<path d="M0 0 C1.65 0 3.3 0 5 0 C6.51322748 3.02645496 6.14069784 6.15845948 6.13371277 9.47814941 C6.13597833 10.25840563 6.13824388 11.03866185 6.14057809 11.8425622 C6.14693564 14.47122816 6.14608761 17.0998428 6.14526367 19.72851562 C6.14825403 21.60731575 6.15165627 23.48611525 6.15544128 25.36491394 C6.16429709 30.47840636 6.16662003 35.59188205 6.16725707 40.70538139 C6.16820474 44.96763299 6.17188131 49.22988066 6.17542917 53.49213076 C6.18357941 63.54309569 6.18601285 73.59405167 6.18530273 83.64501953 C6.18470149 94.02989981 6.19526129 104.41472821 6.2110464 114.79959536 C6.22409887 123.70235582 6.22948761 132.60509928 6.22884732 141.50786924 C6.2285917 146.8310144 6.23147833 152.15411347 6.24202538 157.47724915 C6.25166811 162.48076047 6.251812 167.48418128 6.24450874 172.48769569 C6.24345818 174.32839909 6.24585351 176.169108 6.2518692 178.00980186 C6.25952574 180.51392644 6.25498687 183.01773341 6.24723816 185.52185059 C6.25238172 186.25783179 6.25752529 186.99381299 6.26282471 187.75209665 C6.22827143 192.77172857 6.22827143 192.77172857 4 195 C2.68 194.67 1.36 194.34 0 194 C0 129.98 0 65.96 0 0 Z " fill="#D3D3D3" transform="translate(221,303)"/>
<path d="M0 0 C3.875 1.875 3.875 1.875 5 3 C5.10094226 5.57021843 5.13971237 8.11298032 5.1328125 10.68359375 C5.13376923 11.45429703 5.13472595 12.22500031 5.13571167 13.01905823 C5.13639349 14.65243613 5.13453909 16.28581673 5.13037109 17.91918945 C5.12503007 20.42340172 5.13031224 22.92743403 5.13671875 25.43164062 C5.13605783 27.0156254 5.13477637 28.59961006 5.1328125 30.18359375 C5.13483673 30.9357164 5.13686096 31.68783905 5.13894653 32.4627533 C5.11495624 37.77008751 5.11495624 37.77008751 4 40 C2.35 39.67 0.7 39.34 -1 39 C-1.02467917 33.76725612 -1.04285003 28.53454597 -1.05493164 23.30175781 C-1.05996711 21.52082733 -1.06679581 19.739901 -1.07543945 17.95898438 C-1.08753942 15.40233335 -1.09323609 12.84573688 -1.09765625 10.2890625 C-1.10281754 9.49005524 -1.10797882 8.69104797 -1.11329651 7.86782837 C-1.11387171 2.22774341 -1.11387171 2.22774341 0 0 Z " fill="#C9C9C9" transform="translate(222,609)"/>
</svg>
